<svg width="54" height="41" viewBox="0 0 54 41" fill="none" xmlns="http://www.w3.org/2000/svg">
<path d="M50.1429 0H3.85714C2.83416 0 1.85309 0.431963 1.12973 1.20086C0.406376 1.96976 0 3.01261 0 4.1V36.9C0 37.9874 0.406376 39.0302 1.12973 39.7991C1.85309 40.568 2.83416 41 3.85714 41H50.1429C51.1658 41 52.1469 40.568 52.8703 39.7991C53.5936 39.0302 54 37.9874 54 36.9V4.1C54 3.01261 53.5936 1.96976 52.8703 1.20086C52.1469 0.431963 51.1658 0 50.1429 0ZM45.9 4.1L27 17.999L8.1 4.1H45.9ZM3.85714 36.9V5.9655L25.9007 22.181C26.2235 22.4191 26.6071 22.5466 27 22.5466C27.3929 22.5466 27.7765 22.4191 28.0993 22.181L50.1429 5.9655V36.9H3.85714Z" fill="black"/>
</svg>
